# xmcd
#
# Track frame offsets:
#	150
#	7830
#	26010
#	40767
#	54418
#	71712
#	93043
#	105357
#	121677
#	135921
#
# Disc length: 1977 seconds
#
# Revision: 1
# Processed by: cddbd v1.5.2PL0 Copyright (c) Steve Scherf et al.
# Submitted via: audiograbber 1.83.01
#
DISCID=6907b70a
DTITLE=Deep Street Soul - Come Alive!
DYEAR=2016
DGENRE=Funk
TTITLE0=Out of the gates
TTITLE1=Done me wrong
TTITLE2=Sweet sugar man
TTITLE3=Soul's come alive
TTITLE4=Messin' with me
TTITLE5=The hardest part is knowing
TTITLE6=Love on tap
TTITLE7=Little Ray
TTITLE8=Big C
TTITLE9=Deux Freres
EXTD=
EXTT0=
EXTT1=
EXTT2=
EXTT3=
EXTT4=
EXTT5=Ft. Joshua Tavares
EXTT6=Ft. Kylie Auldist
EXTT7=
EXTT8=
EXTT9=
PLAYORDER=
